<svg xmlns="http://www.w3.org/2000/svg" viewBox="0 0 24 24">
  <!-- Background circle -->
  <circle cx="12" cy="12" r="11" fill="#f98012" />
  
  <!-- Receipt/document -->
  <path d="M7.5,5h9c0.55,0,1,0.45,1,1v12c0,0.55-0.45,1-1,1h-9c-0.55,0-1-0.45-1-1V6C6.5,5.45,6.95,5,7.5,5z" fill="#ffffff" />
  
  <!-- Document lines -->
  <line x1="8.5" y1="8" x2="15.5" y2="8" stroke="#f98012" stroke-width="1" stroke-linecap="round" />
  <line x1="8.5" y1="10" x2="15.5" y2="10" stroke="#f98012" stroke-width="1" stroke-linecap="round" />
  <line x1="8.5" y1="12" x2="12.5" y2="12" stroke="#f98012" stroke-width="1" stroke-linecap="round" />
  
  <!-- Checkmark -->
  <path d="M16,14.5c-0.83,0-1.5,0.67-1.5,1.5s0.67,1.5,1.5,1.5s1.5-0.67,1.5-1.5S16.83,14.5,16,14.5z M15.38,16.38l-0.5-0.5l0.35-0.35l0.15,0.15l0.65-0.65l0.35,0.35L15.38,16.38z" fill="#4CAF50" />
  
  <!-- Dollar sign -->
  <path d="M12,14.5v1.5 M12,17.5v-0.5 M11.25,16.25h1.5" stroke="#4CAF50" stroke-width="1" stroke-linecap="round" />
  <circle cx="12" cy="16" r="1.75" stroke="#4CAF50" stroke-width="1" fill="none" />
</svg>